name E:\3-PhD\Data\MocapData\ElaboratedData\009\pre\dynamicElaborations\Run_baseline2\Run_baseline2.mot
datacolumns 37
datarows 7
range 3.69 3.693
endheader

time	    ground_force1_vx	    ground_force1_vy	    ground_force1_vz	    ground_force1_px	    ground_force1_py	    ground_force1_pz	    ground_force2_vx	    ground_force2_vy	    ground_force2_vz	    ground_force2_px	    ground_force2_py	    ground_force2_pz	    ground_force3_vx	    ground_force3_vy	    ground_force3_vz	    ground_force3_px	    ground_force3_py	    ground_force3_pz	    ground_force4_vx	    ground_force4_vy	    ground_force4_vz	    ground_force4_px	    ground_force4_py	    ground_force4_pz	    ground_torque1_x	    ground_torque1_y	    ground_torque1_z	    ground_torque2_x	    ground_torque2_y	    ground_torque2_z	    ground_torque3_x	    ground_torque3_y	    ground_torque3_z	    ground_torque4_x	    ground_torque4_y	    ground_torque4_z	
3.69	          0.00000000	          0.00000000	          0.00000000	          0.00000000	          0.00000000	          0.00000000	          0.00000000	          0.00000000	          0.00000000	          0.00000000	          0.00000000	          0.00000000	       -108.49411909	        376.54234205	        -91.62736375	         -0.61633959	          0.00000000	          0.55680077	          0.00000000	          0.00000000	          0.00000000	          0.00000000	          0.00000000	          0.00000000	          0.00000000	          0.00000000	          0.00000000	          0.00000000	          0.00000000	          0.00000000	         -0.00000000	         -2.60725431	          0.00000000	          0.00000000	          0.00000000	          0.00000000	
3.6905	          0.00000000	          0.00000000	          0.00000000	          0.00000000	          0.00000000	          0.00000000	          0.00000000	          0.00000000	          0.00000000	          0.00000000	          0.00000000	          0.00000000	       -110.73811656	        391.62948988	        -96.17620619	         -0.61726046	          0.00000000	          0.55667000	          0.00000000	          0.00000000	          0.00000000	          0.00000000	          0.00000000	          0.00000000	          0.00000000	          0.00000000	          0.00000000	          0.00000000	          0.00000000	          0.00000000	         -0.00000000	         -2.67694126	          0.00000000	          0.00000000	          0.00000000	          0.00000000	
3.691	          0.00000000	          0.00000000	          0.00000000	          0.00000000	          0.00000000	          0.00000000	          0.00000000	          0.00000000	          0.00000000	          0.00000000	          0.00000000	          0.00000000	       -112.93726175	        406.96477235	       -100.83301946	         -0.61816067	          0.00000000	          0.55654254	          0.00000000	          0.00000000	          0.00000000	          0.00000000	          0.00000000	          0.00000000	          0.00000000	          0.00000000	          0.00000000	          0.00000000	          0.00000000	          0.00000000	         -0.00000000	         -2.74424986	          0.00000000	          0.00000000	          0.00000000	          0.00000000	
3.6915	          0.00000000	          0.00000000	          0.00000000	          0.00000000	          0.00000000	          0.00000000	          0.00000000	          0.00000000	          0.00000000	          0.00000000	          0.00000000	          0.00000000	       -115.08661533	        422.54134376	       -105.59708690	         -0.61904196	          0.00000000	          0.55641818	          0.00000000	          0.00000000	          0.00000000	          0.00000000	          0.00000000	          0.00000000	          0.00000000	          0.00000000	          0.00000000	          0.00000000	          0.00000000	          0.00000000	         -0.00000000	         -2.80898326	          0.00000000	          0.00000000	          0.00000000	          0.00000000	
3.692	          0.00000000	          0.00000000	          0.00000000	          0.00000000	          0.00000000	          0.00000000	          0.00000000	          0.00000000	          0.00000000	          0.00000000	          0.00000000	          0.00000000	       -117.18131896	        438.35256286	       -110.46760892	         -0.61990591	          0.00000000	          0.55629673	          0.00000000	          0.00000000	          0.00000000	          0.00000000	          0.00000000	          0.00000000	          0.00000000	          0.00000000	          0.00000000	          0.00000000	          0.00000000	          0.00000000	         -0.00000000	         -2.87094537	          0.00000000	          0.00000000	          0.00000000	          0.00000000	
3.6925	          0.00000000	          0.00000000	          0.00000000	          0.00000000	          0.00000000	          0.00000000	          0.00000000	          0.00000000	          0.00000000	          0.00000000	          0.00000000	          0.00000000	       -119.21666901	        454.39213974	       -115.44364925	         -0.62075385	          0.00000000	          0.55617798	          0.00000000	          0.00000000	          0.00000000	          0.00000000	          0.00000000	          0.00000000	          0.00000000	          0.00000000	          0.00000000	          0.00000000	          0.00000000	          0.00000000	         -0.00000000	         -2.92995043	          0.00000000	          0.00000000	          0.00000000	          0.00000000	
3.693	          0.00000000	          0.00000000	          0.00000000	          0.00000000	          0.00000000	          0.00000000	          0.00000000	          0.00000000	          0.00000000	          0.00000000	          0.00000000	          0.00000000	       -121.18820214	        470.65421383	       -120.52406594	         -0.62158696	          0.00000000	          0.55606177	          0.00000000	          0.00000000	          0.00000000	          0.00000000	          0.00000000	          0.00000000	          0.00000000	          0.00000000	          0.00000000	          0.00000000	          0.00000000	          0.00000000	         -0.00000000	         -2.98583316	          0.00000000	          0.00000000	          0.00000000	          0.00000000	
